<svg width="79" height="41" viewBox="0 0 79 41" fill="none" xmlns="http://www.w3.org/2000/svg">
<path d="M33.5 1L33.9939 0.435567L33.7818 0.25H33.5V1ZM77.5499 40.2483C77.9632 40.2208 78.2759 39.8634 78.2483 39.4501L77.7993 32.7151C77.7718 32.3018 77.4144 31.9891 77.0011 32.0166C76.5878 32.0442 76.2751 32.4015 76.3027 32.8148L76.7018 38.8016L70.7151 39.2007C70.3018 39.2282 69.9891 39.5856 70.0166 39.9989C70.0442 40.4122 70.4015 40.7249 70.8148 40.6973L77.5499 40.2483ZM0.5 1.75H33.5V0.25H0.5V1.75ZM33.0061 1.56443L77.0061 40.0644L77.9939 38.9356L33.9939 0.435567L33.0061 1.56443Z" fill="url(#paint0_linear_196_811)"/>
<defs>
<linearGradient id="paint0_linear_196_811" x1="0.5" y1="1" x2="24.6261" y2="38.8324" gradientUnits="userSpaceOnUse">
<stop stop-color="white" stop-opacity="0"/>
<stop offset="1" stop-color="white"/>
</linearGradient>
</defs>
</svg>
