<svg width="12" height="17" viewBox="0 0 12 17" fill="none" xmlns="http://www.w3.org/2000/svg">
<path fill-rule="evenodd" clip-rule="evenodd" d="M7.31383 3.22024C9.26663 3.41302 10.7979 4.00987 10.9677 5.78775C11.0829 7.08386 10.5365 7.85504 9.63289 8.28966C11.0917 8.65378 11.9791 9.50983 11.7957 11.4089C11.5725 13.7891 9.79176 14.4074 7.24591 14.5378L7.2499 16.9952L5.75055 16.9971L5.74656 14.5397C5.5827 14.5373 5.41138 14.5398 5.23566 14.5423C5.00086 14.5457 4.75821 14.5491 4.51505 14.5413L4.51904 16.9987L3.02243 17.0006L3.01844 14.5432L0.019985 14.484L0.272674 12.6881C0.272674 12.6881 1.40513 12.713 1.38414 12.7C1.80105 12.6978 1.92478 12.4022 1.9556 12.2081L1.94814 8.26878L1.95992 5.46508C1.91388 5.17284 1.715 4.82218 1.10207 4.81154C1.13545 4.78161 0.00428438 4.81295 0.00428438 4.81295L0.000488281 3.16652L3.07315 3.16257L3.06924 0.755514L4.61721 0.753524L4.62111 3.16058C4.91994 3.1523 5.21473 3.15467 5.51282 3.15707C5.61066 3.15785 5.70885 3.15864 5.80766 3.15906L5.80375 0.751999L7.30988 0.750061L7.31383 3.22024ZM4.43616 7.7492L4.51218 7.75247C5.42346 7.79221 8.12544 7.91002 8.1296 6.27182C8.12543 4.7165 5.82587 4.76668 4.75742 4.79L4.75735 4.79C4.63118 4.79275 4.52218 4.79513 4.43616 4.79445V7.7492ZM4.56424 12.5742C4.51638 12.5723 4.47227 12.5705 4.43233 12.5689L4.43232 9.61419C4.52752 9.61507 4.64723 9.61358 4.78566 9.61186C6.04837 9.59614 8.86876 9.56101 8.8554 11.129C8.86962 12.7508 5.68609 12.6202 4.56424 12.5742Z" fill="white"/>
</svg>
