<svg width="81" height="56" viewBox="0 0 81 56" fill="none" xmlns="http://www.w3.org/2000/svg">
<path d="M2.374 46.9791H0V54.0659C0 54.7942 0.590392 55.3846 1.31868 55.3846H79.1209C79.8492 55.3846 80.4396 54.7942 80.4396 54.0659V2.2371L78.5365 5.99845C77.9654 7.12711 76.2869 6.8822 76.0621 5.63742L75.24 1.08437C75.1267 0.456614 74.5802 0 73.9423 0H71.1103C70.6585 0 70.2381 0.231352 69.9963 0.613074L67.9417 3.85695C67.5368 4.49608 66.6784 4.66429 66.0623 4.22523L64.9404 3.42571C64.1594 2.86909 63.0643 3.30595 62.8808 4.24734L61.0597 13.5914C60.8201 14.821 59.162 15.055 58.5914 13.9398L57.516 11.8376C57.2863 11.3885 56.6288 11.4396 56.4712 11.9188C56.3339 12.3363 55.7947 12.4462 55.505 12.1158L55.1612 11.7238C54.7277 11.2295 53.9232 11.3799 53.6975 11.9974L52.2046 16.0829C51.9524 16.7732 51.1845 17.124 50.4976 16.8629L50.2766 16.779C49.5088 16.4871 48.6639 16.9607 48.5121 17.7681L45.9663 31.3151C45.8987 31.6745 45.6849 31.9898 45.3759 32.1855L42.84 33.7919C42.1256 34.2445 41.176 33.9171 40.8922 33.1205L39.5499 29.3532C39.1283 28.1698 37.4475 28.1904 37.0551 29.3838L36.945 29.7186C36.8429 30.029 36.6292 30.2904 36.3454 30.4522L34.3529 31.5882C34.0286 31.7731 33.7978 32.0868 33.7179 32.4514L32.2722 39.0453C32.1809 39.4615 31.8943 39.8079 31.5025 39.9754L28.6574 41.192C28.3644 41.3173 28.1266 41.5445 27.9881 41.8315L26.6019 44.7054C26.1391 45.6648 24.7886 45.708 24.2655 44.7801L24.1655 44.6028C23.7326 43.8349 22.6826 43.6999 22.0694 44.3332L18.1427 48.3893C17.6138 48.9355 16.7339 48.9226 16.2213 48.3611L15.9534 48.0676C15.4234 47.487 14.5064 47.4961 13.988 48.0871L13.3918 48.767C13.1414 49.0524 12.7801 49.2162 12.4004 49.2162H9.79697C9.3466 49.2162 8.92737 48.9863 8.68518 48.6066L6.39969 45.0233C5.84911 44.1601 4.5677 44.2263 4.10898 45.1416L3.55292 46.2512C3.32933 46.6973 2.87304 46.9791 2.374 46.9791Z" fill="url(#paint0_linear_597_1378)"/>
<defs>
<linearGradient id="paint0_linear_597_1378" x1="40.2198" y1="0" x2="40.2198" y2="55.3846" gradientUnits="userSpaceOnUse">
<stop stop-color="#FEF0EE" stop-opacity="0.05"/>
<stop offset="1" stop-color="#FEF0EE" stop-opacity="0"/>
</linearGradient>
</defs>
</svg>
