<svg width="19" height="17" viewBox="0 0 19 17" fill="none" xmlns="http://www.w3.org/2000/svg">
<path d="M11.7201 10.4721C11.2601 10.4721 10.8801 10.8521 10.8801 11.3121V13.6921H8.28007V3.03209H10.86V5.41213C10.86 5.87209 11.24 6.25213 11.7 6.25213C12.16 6.25213 12.54 5.87209 12.54 5.41213L12.5401 2.17202C12.5401 1.71206 12.1601 1.33202 11.7001 1.33202H8.28007V0.851988C8.28007 0.591945 8.16009 0.351988 7.96004 0.191988C7.75998 0.0319702 7.50007 -0.0280191 7.25996 0.0120201L0.679964 1.35213C0.28 1.43207 0 1.7722 0 2.19213V14.5721C0 14.9721 0.279993 15.3322 0.679964 15.4121L7.25996 16.7322C7.31995 16.7521 7.37994 16.7521 7.41998 16.7521C7.62004 16.7521 7.80002 16.6921 7.96002 16.5521C8.16007 16.392 8.28005 16.1521 8.28005 15.8921V15.412H11.7001C12.1601 15.412 12.5401 15.032 12.5401 14.572V11.3321C12.5601 10.8521 12.18 10.4721 11.7201 10.4721L11.7201 10.4721ZM5.72011 9.27199C5.22011 9.27199 4.82014 8.87202 4.82014 8.37202C4.82014 7.87202 5.22011 7.47206 5.72011 7.47206C6.22011 7.47206 6.62007 7.87202 6.62007 8.37202C6.62007 8.87202 6.22011 9.27199 5.72011 9.27199Z" fill="#F6543E"/>
<path opacity="0.7" d="M18.7601 7.77206L16.2801 5.29213C15.9401 4.95214 15.4202 4.95214 15.08 5.29213C14.74 5.63211 14.74 6.15206 15.08 6.4922L16.1 7.51216H10.58C10.12 7.51216 9.73999 7.8922 9.73999 8.35216C9.73999 8.81213 10.12 9.19216 10.58 9.19216H16.1L15.08 10.2121C14.74 10.5521 14.74 11.0721 15.08 11.4122C15.24 11.5722 15.4601 11.6522 15.6801 11.6522C15.9001 11.6522 16.1201 11.5722 16.2801 11.4122L18.76 8.9722C19.0799 8.63222 19.0799 8.11213 18.76 7.77213L18.7601 7.77206Z" fill="#F6543E"/>
</svg>
