<svg width="50" height="44" viewBox="0 0 50 44" fill="none" xmlns="http://www.w3.org/2000/svg">
<path d="M26.1568 17.7601L17.277 25.3058C16.8651 25.6558 16.4496 25.9984 16.0455 26.3523L16.029 26.3663C15.6542 26.6847 15.4164 27.1675 15.3943 27.6319C15.3769 28.0782 15.571 28.615 15.9288 28.9355C16.2943 29.2635 16.7822 29.5155 17.3158 29.5147C17.8456 29.5101 18.3452 29.3628 18.7445 29.0269L27.6243 21.4812C28.0361 21.1312 28.4516 20.7886 28.8557 20.4347L28.8722 20.4207C29.247 20.1023 29.4848 19.6195 29.5069 19.1551C29.5243 18.7088 29.3302 18.172 28.9724 17.8515C28.6069 17.5235 28.119 17.2715 27.5854 17.2723C27.0555 17.2806 26.5521 17.4241 26.1568 17.7601V17.7601Z" fill="#F71B1B"/>
<path d="M16.2799 20.0086C16.5905 20.313 16.905 20.6212 17.2195 20.9293C17.9674 21.6621 18.7153 22.3949 19.4632 23.1277C20.3722 24.0184 21.2812 24.9091 22.1902 25.7997C22.9765 26.5701 23.7628 27.3406 24.549 28.111C24.9326 28.4868 25.308 28.8659 25.6959 29.2346C25.6997 29.2384 25.7074 29.2459 25.7112 29.2497C26.0602 29.5917 26.5893 29.8087 27.0982 29.8289C27.5874 29.8447 28.1757 29.6676 28.5268 29.3411C28.8863 29.0076 29.1625 28.5624 29.1616 28.0755C29.1565 27.5921 28.9951 27.1363 28.627 26.7719C28.3164 26.4675 28.0019 26.1593 27.6874 25.8512C26.9395 25.1184 26.1916 24.3856 25.4437 23.6527C24.5347 22.7621 23.6257 21.8714 22.7167 20.9808C21.9304 20.2103 21.1441 19.4399 20.3579 18.6695C19.9743 18.2937 19.5989 17.9146 19.211 17.5458C19.2072 17.5421 19.1995 17.5346 19.1957 17.5308C18.8467 17.1888 18.3176 16.9718 17.8087 16.9516C17.3195 16.9358 16.7312 17.1129 16.3801 17.4394C16.0206 17.7729 15.7444 18.2181 15.7453 18.705C15.7504 19.1884 15.9117 19.6478 16.2799 20.0086V20.0086Z" fill="#F71B1B"/>
<path d="M42.8321 16.2377L39.497 13.4591L38.3369 9.48969C37.9744 8.29886 36.8869 7.37266 35.5455 7.17419L31.0867 6.47954L27.7878 3.73405C26.7728 2.90705 25.3227 2.67554 24.0902 3.17171L19.9213 4.7926L15.4625 4.09795C14.1211 3.89948 12.7799 4.42874 12.0187 5.45421L9.48107 8.86127L5.34842 10.4822C4.11588 10.9783 3.28206 12.0699 3.24585 13.3269L3.13709 17.4287L0.599506 20.8357C-0.161771 21.8611 -0.198022 23.2174 0.490752 24.2759L2.84713 27.7822L2.73837 31.884C2.70212 33.141 3.4634 34.2656 4.69594 34.828L8.75608 36.6142L11.1125 40.1206C11.8012 41.1791 13.1425 41.7745 14.4839 41.6092L18.979 41.113L23.0392 42.8992C24.2717 43.4285 25.7218 43.2962 26.773 42.5023L30.2531 39.8891L34.7483 39.3929C36.0896 39.2606 37.2497 38.4006 37.6484 37.2097L39.0259 33.3065L42.5061 30.6933C43.5574 29.8994 43.9924 28.6424 43.6661 27.4186L42.5061 23.4491L43.8836 19.5458C44.2099 18.3881 43.8474 17.065 42.8323 16.238L42.8321 16.2377ZM35.1468 25.7976C35.1468 26.823 34.748 27.8155 34.0231 28.5762L30.2529 32.7111C29.5279 33.505 28.5492 34.0342 27.4253 34.1997L21.5888 35.1259C20.5013 35.2913 19.3412 35.1259 18.3987 34.5966L13.2872 31.9172C12.3085 31.421 11.5835 30.5941 11.1847 29.6347L9.1546 24.5737C8.75583 23.6144 8.75583 22.5558 9.1546 21.5966L11.1847 16.5355C11.5834 15.5762 12.3084 14.7823 13.2872 14.2531L18.3987 11.5406C19.3775 11.0445 20.5013 10.846 21.5888 11.0114L27.4253 11.9707C28.5129 12.1361 29.5279 12.6653 30.2529 13.4593L34.0593 17.5941C34.7844 18.388 35.1831 19.3804 35.1831 20.3727L35.1831 25.7976H35.1468Z" fill="#F71B1B"/>
<path d="M34.7365 8.3382L34.7402 6.56415L34.7402 6.53922L34.7415 6.51434C34.8222 4.95936 35.5616 3.58483 36.6729 2.60469L36.6741 2.60354L36.6813 2.59704L36.6885 2.59068C37.8216 1.59889 39.346 1 41.0003 1C42.6575 1 44.1863 1.6009 45.3209 2.59885L45.3211 2.59899C46.4565 3.59807 47.206 5.00868 47.263 6.60254L47.2636 6.61987L47.2636 6.63721L47.2653 8.33855C47.6391 8.44277 47.9796 8.6308 48.2578 8.88412L48.2794 8.90378L48.2998 8.92466L48.3682 8.99468L48.3732 8.99981L48.3782 9.00502C48.7516 9.39834 49 9.93296 49 10.5355V17.1346C49 17.7991 48.6999 18.3837 48.2578 18.786L34.7365 8.3382ZM34.7365 8.3382C34.3611 8.44281 34.0185 8.6326 33.7385 8.89052C33.3015 9.29174 33 9.87129 33 10.5355V17.1346C33 17.7991 33.3002 18.3837 33.7422 18.786L34.7365 8.3382ZM42.8232 5.21247L42.8225 5.21184C42.3651 4.80843 41.7251 4.5486 41 4.5486C40.2752 4.5486 39.6357 4.80833 39.1817 5.2077L42.8232 5.21247ZM42.8232 5.21247C43.2707 5.60637 43.537 6.12719 43.5652 6.68518V8.24543M42.8232 5.21247L43.5652 8.24543M43.5652 8.24543H38.4344L38.434 6.6606C38.4705 6.11295 38.7357 5.60086 39.1816 5.2078L43.5652 8.24543ZM46.5824 19.4247C47.22 19.4247 47.8168 19.1873 48.2573 18.7864L33.7426 18.7864C34.1832 19.1874 34.7801 19.4247 35.4176 19.4247H46.5824Z" fill="#F71B1B" stroke="#471B1F" strokeWidth="2"/>
</svg>
