<svg width="10" height="10" viewBox="0 0 10 10" fill="none" xmlns="http://www.w3.org/2000/svg">
<path d="M0.562299 6.76312C1.63463 7.60113 2.70688 8.43923 3.77927 9.27734C4.29345 9.67913 5.01835 9.33563 5.33019 8.85971C6.82158 6.58409 8.31298 4.30847 9.80437 2.03285C10.6231 0.783559 8.65827 -0.380147 7.84679 0.857924C6.3554 3.13354 4.86401 5.40916 3.37262 7.68499C3.88965 7.54575 4.40652 7.40659 4.92354 7.26736C3.85121 6.42936 2.77896 5.59125 1.70657 4.75314C1.21359 4.36791 0.439413 4.67334 0.155649 5.17077C-0.185379 5.76839 0.0716001 6.37964 0.562219 6.76316L0.562299 6.76312Z" fill="#F7931A"/>
</svg>
