<svg width="27" height="26" viewBox="0 0 27 26" fill="none" xmlns="http://www.w3.org/2000/svg">
<path d="M11.6944 24.2509C11.6944 25.1719 10.9479 25.9183 10.027 25.9183C9.10605 25.9183 8.35931 25.1719 8.35931 24.2509C8.35931 23.33 9.10605 22.5833 10.027 22.5833C10.9479 22.5833 11.6944 23.33 11.6944 24.2509Z" fill="#3C3C3B"/>
<path d="M18.3636 24.251C18.3636 25.172 17.6169 25.9184 16.6959 25.9184C15.775 25.9184 15.0286 25.172 15.0286 24.251C15.0286 23.3301 15.775 22.5834 16.6959 22.5834C17.6169 22.5834 18.3636 23.3301 18.3636 24.251Z" fill="#3C3C3B"/>
<path d="M22.7914 4.81164C21.3552 3.37103 19.6075 2.2791 17.6828 1.61991C15.7583 0.96068 13.7079 0.751905 11.6901 1.00954C9.32886 1.29945 7.09096 2.22593 5.21589 3.69007C2.44461 5.8312 0.626346 8.97641 0.153783 12.446C-0.319048 15.916 0.592005 19.4329 2.68945 22.2368C2.97821 22.6209 3.41847 22.8617 3.89766 22.8977C4.3766 22.9335 4.848 22.7611 5.19081 22.4243C5.47491 22.137 5.64503 21.7564 5.66945 21.353C5.69417 20.9497 5.57145 20.5513 5.32428 20.2317C3.76247 18.1334 3.0846 15.5072 3.43559 12.9154C3.65834 11.2097 4.32541 9.59223 5.36992 8.22554C6.51827 6.70586 8.07628 5.5456 9.8612 4.88112C11.6461 4.21637 13.5836 4.07505 15.4459 4.47372C16.5622 4.69676 17.6286 5.12044 18.5934 5.72413C20.9864 7.20197 22.6488 9.61608 23.176 12.3784C23.7032 15.1409 23.0463 17.9976 21.3656 20.2522C21.128 20.5712 21.0123 20.9643 21.039 21.361C21.0658 21.7579 21.2333 22.1318 21.5116 22.416C21.8556 22.7516 22.3275 22.9226 22.8067 22.885C23.2857 22.8475 23.7254 22.6053 24.0129 22.22C25.9342 19.6552 26.868 16.4847 26.6437 13.2884C26.4195 10.0917 25.0519 7.08258 22.7913 4.81155L22.7914 4.81164Z" fill="#141414"/>
<path d="M18.2893 9.31394C17.9767 9.00076 17.5522 8.82483 17.1095 8.82483C16.667 8.82483 16.2427 9.00076 15.9298 9.31394L12.178 13.0657C11.7564 13.4874 11.5918 14.1015 11.7462 14.6772C11.9003 15.253 12.3502 15.7028 12.9259 15.857C13.5017 16.0114 14.1161 15.8468 14.5375 15.4252L18.2893 11.6734C18.6024 11.3605 18.7784 10.9363 18.7784 10.4937C18.7784 10.0511 18.6024 9.62654 18.2893 9.31388L18.2893 9.31394Z" fill="#8C8C8C"/>
</svg>
