<svg width="37" height="30" viewBox="0 0 37 30" fill="none" xmlns="http://www.w3.org/2000/svg">
<path d="M36.2824 3.48991C34.9331 4.08176 33.4954 4.47407 31.9965 4.66455C33.5385 3.74389 34.7154 2.29713 35.2687 0.553306C33.831 1.41048 32.2437 2.01594 30.552 2.35382C29.1869 0.900256 27.2412 0 25.1187 0C21.0007 0 17.6854 3.34251 17.6854 7.44015C17.6854 8.02974 17.7353 8.59665 17.8577 9.13635C11.6738 8.83475 6.20201 5.87094 2.52616 1.35605C1.88441 2.46947 1.50799 3.74389 1.50799 5.11581C1.50799 7.69186 2.83456 9.97538 4.81195 11.2974C3.6169 11.2747 2.44452 10.9278 1.45129 10.3813C1.45129 10.404 1.45129 10.4334 1.45129 10.4629C1.45129 14.0776 4.02961 17.0799 7.41067 17.7715C6.80521 17.9371 6.14532 18.0165 5.46049 18.0165C4.98429 18.0165 4.50355 17.9892 4.05229 17.8895C5.01604 20.8351 7.75082 23.0007 11.0026 23.071C8.47193 25.0507 5.25867 26.2435 1.7801 26.2435C1.17011 26.2435 0.585053 26.2163 0 26.1414C3.29489 28.2662 7.19978 29.4794 11.4108 29.4794C25.0983 29.4794 32.5816 18.1412 32.5816 8.31319C32.5816 7.98439 32.5702 7.66691 32.5543 7.35171C34.0306 6.30406 35.271 4.99563 36.2824 3.48991Z" fill="white"/>
</svg>
