<svg width="34" height="25" viewBox="0 0 34 25" fill="none" xmlns="http://www.w3.org/2000/svg">
<path d="M28.2105 2.05736C26.1446 1.11049 23.9496 0.421863 21.6427 0.0172933C21.5996 0.0172933 21.5566 0.0172932 21.5394 0.0689404C21.2553 0.576805 20.9368 1.231 20.7216 1.74748C18.2254 1.37734 15.7721 1.37734 13.3447 1.74748C13.1209 1.21379 12.8024 0.568197 12.4839 0.0689404C12.4581 0.034509 12.4237 0.00868547 12.3806 0.0172933C10.4008 0.413256 7.87009 1.13632 5.83863 2.05736C5.82141 2.05736 5.8042 2.07457 5.79559 2.09179C1.57773 8.37554 0.458709 14.401 1.06126 20.4266C1.06126 20.4524 1.07848 20.4868 1.1043 20.5126C3.85882 22.5441 6.52726 23.7836 9.16127 24.5842C9.20431 24.5842 9.24735 24.5842 9.27317 24.5497C9.89294 23.7062 10.4438 22.8109 10.9259 21.8641C10.9517 21.8124 10.9259 21.7436 10.8656 21.7264C10.0048 21.382 9.14405 20.9861 8.34352 20.5212C8.28327 20.4868 8.27466 20.3921 8.34352 20.3491C8.51568 20.22 8.68784 20.0909 8.84278 19.9617C8.8686 19.9359 8.91164 19.9359 8.94607 19.9445C14.2313 22.3547 19.9642 22.3547 25.1289 19.9445C25.1633 19.9273 25.2063 19.9359 25.2322 19.9531C25.3957 20.0909 25.5593 20.22 25.7314 20.3491C25.7917 20.3921 25.7831 20.4868 25.7314 20.5212C24.9309 20.9947 24.0959 21.382 23.2093 21.7264C23.1491 21.7522 23.1232 21.8124 23.1577 21.8727C23.6397 22.8196 24.1992 23.7062 24.7932 24.5411C24.819 24.5756 24.862 24.5928 24.9051 24.5756C27.5391 23.7578 30.2161 22.5269 32.9793 20.504C33.0051 20.4868 33.0223 20.461 33.0223 20.418C33.6937 13.4542 31.8947 7.42006 28.2535 2.08318C28.2535 2.06597 28.2277 2.04875 28.2105 2.04875V2.05736ZM11.6834 16.7768C10.0479 16.7768 8.7567 15.3135 8.7567 13.5058C8.7567 11.6982 10.0479 10.2348 11.6834 10.2348C13.3189 10.2348 14.6101 11.6982 14.6101 13.5058C14.6101 15.3135 13.3189 16.7768 11.6834 16.7768ZM22.4432 16.7768C20.8077 16.7768 19.5165 15.3135 19.5165 13.5058C19.5165 11.6982 20.8077 10.2348 22.4432 10.2348C24.0787 10.2348 25.3699 11.6982 25.3699 13.5058C25.3699 15.3135 24.0787 16.7768 22.4432 16.7768Z" fill="white"/>
</svg>
