<svg width="33" height="31" viewBox="0 0 33 31" fill="none" xmlns="http://www.w3.org/2000/svg">
<path d="M29.8852 0H2.72617C1.48171 0 0.470581 0.978598 0.470581 2.17991V28.0554C0.470581 29.2567 1.48171 30.2353 2.72617 30.2353H29.8852C31.1297 30.2353 32.1479 29.2567 32.1479 28.0554V2.17991C32.1479 0.978598 31.1297 0 29.8852 0ZM10.0445 25.916H5.34945V11.4867H10.0515V25.916H10.0445ZM7.69696 9.51602C6.19088 9.51602 4.9747 8.34845 4.9747 6.91767C4.9747 5.4869 6.19088 4.31933 7.69696 4.31933C9.19598 4.31933 10.4192 5.4869 10.4192 6.91767C10.4192 8.3552 9.20305 9.51602 7.69696 9.51602ZM27.6438 25.916H22.9487V18.8971C22.9487 17.2233 22.9134 15.0704 20.5093 15.0704C18.0628 15.0704 17.688 16.8926 17.688 18.7756V25.916H12.993V11.4867H17.4971V13.4574H17.5608C18.1901 12.3236 19.7244 11.129 22.0083 11.129C26.7599 11.129 27.6438 14.1188 27.6438 18.0062V25.916Z" fill="white"/>
</svg>
