<svg width="61" height="67" viewBox="0 0 61 67" fill="none" xmlns="http://www.w3.org/2000/svg">
<path d="M26.0451 65.8697L4.39846 53.478C3.09535 52.7323 2.01151 51.6565 1.25593 50.3589C0.500362 49.0613 0.099692 47.5876 0.094215 46.086L5.50853e-05 21.1409C-0.00533088 19.6399 0.384331 18.1638 1.12989 16.8611C1.87546 15.5583 2.95067 14.4748 4.2475 13.7193L25.801 1.16226C27.0983 0.406552 28.5717 0.00572115 30.073 6.07922e-05C31.5743 -0.00559956 33.0507 0.38411 34.3537 1.13002L56.0003 13.5212C57.3032 14.2671 58.3868 15.3429 59.1424 16.6405C59.8979 17.938 60.2987 19.4116 60.3045 20.9132L60.3982 45.8588C60.4035 47.3598 60.0138 48.8358 59.2682 50.1386C58.5227 51.4413 57.4475 52.5249 56.1507 53.2805L34.5983 65.8374C33.3009 66.5933 31.8274 66.9943 30.326 66.9999C28.8246 67.0056 27.3481 66.6158 26.0451 65.8697Z" fill="#F7931A"/>
<path d="M49.2668 33.5561C48.8972 33.2848 48.4679 33.1061 48.015 33.0348C47.5621 32.9636 47.0987 33.0019 46.6636 33.1467L30.8703 38.3163C30.6113 38.4004 30.3318 38.3961 30.0755 38.304L14.3201 32.6118C14.2181 32.567 14.1313 32.4936 14.0701 32.4005C14.0089 32.3074 13.9759 32.1986 13.9752 32.0872V32.0774L13.9834 28.9373C13.985 28.8548 14.0061 28.7739 14.045 28.7012C14.0839 28.6285 14.1395 28.566 14.2072 28.5189C14.2749 28.4718 14.3528 28.4414 14.4345 28.4303C14.5162 28.4191 14.5994 28.4274 14.6773 28.4546L29.3827 33.5961C30.0852 33.8453 30.8519 33.8469 31.5555 33.6007L49.7693 27.4197C49.8966 27.3765 50.0142 27.3087 50.1152 27.22C50.2163 27.1314 50.2989 27.0238 50.3584 26.9032C50.4179 26.7826 50.453 26.6516 50.4618 26.5174C50.4707 26.3833 50.453 26.2487 50.4098 26.1214C50.3666 25.9941 50.2988 25.8765 50.2102 25.7754C50.1216 25.6744 50.0139 25.5917 49.8934 25.5322C49.7729 25.4727 49.6418 25.4376 49.5077 25.4288C49.3736 25.42 49.239 25.4376 49.1118 25.4808L42.0242 27.8865L39.3948 26.9846C43.1694 25.4875 45.222 24.2371 42.9473 23.2149C41.1174 22.3919 38.7767 22.5828 36.1632 23.2717C37.0301 22.6063 37.0163 21.9998 35.3813 21.5826C33.1521 21.0073 30.1011 21.6594 26.892 22.7031L24.1696 21.77L21.8294 22.6278L24.4802 23.5363C23.8661 23.7621 23.2448 23.997 22.6297 24.2273L19.9625 23.3106L17.6213 24.1664L20.3433 25.0995C19.8431 25.2879 19.3514 25.4716 18.8679 25.6508L18.8587 25.6477L31.1599 29.9917C31.7269 29.7844 32.2914 29.5822 32.8415 29.3821L35.2155 30.1949L30.8892 31.6649L30.8693 31.6715C30.6062 31.7632 30.3193 31.7603 30.0581 31.6634L15.3518 26.5209C14.967 26.3864 14.5558 26.3454 14.1521 26.4012C13.7484 26.4571 13.3637 26.6082 13.0299 26.8422C12.6962 27.0761 12.4228 27.3861 12.2325 27.7466C12.0422 28.1071 11.9403 28.5077 11.9354 28.9153V28.9265L11.9282 32.0677C11.9264 32.5928 12.0817 33.1065 12.3743 33.5426C12.6669 33.9786 13.0833 34.317 13.5699 34.5143L13.6042 34.5271L29.3786 40.2305C30.0644 40.4772 30.8128 40.4886 31.5059 40.2628L47.2987 35.0932C47.4266 35.0515 47.5627 35.0407 47.6956 35.0617C47.8286 35.0827 47.9547 35.1348 48.0636 35.2139C48.1725 35.293 48.2611 35.3968 48.3223 35.5167C48.3834 35.6366 48.4153 35.7693 48.4153 35.904V38.5891C48.4147 38.7642 48.3604 38.935 48.2597 39.0783C48.1591 39.2216 48.0169 39.3306 47.8524 39.3906L30.88 45.5767C30.6136 45.6738 30.3218 45.6751 30.0546 45.5803L13.2787 38.9509C13.1535 38.9005 13.0196 38.8753 12.8846 38.8769C12.7496 38.8784 12.6163 38.9066 12.4923 38.9599C12.3683 39.0132 12.256 39.0905 12.162 39.1874C12.068 39.2842 11.994 39.3987 11.9444 39.5243C11.8948 39.6498 11.8705 39.7839 11.873 39.9189C11.8754 40.0539 11.9045 40.1871 11.9586 40.3108C12.0127 40.4344 12.0907 40.5462 12.1882 40.6396C12.2856 40.733 12.4006 40.8062 12.5264 40.855L29.3166 47.4905L29.3417 47.5002C30.0648 47.7633 30.8575 47.7633 31.5806 47.5002L48.557 41.3131C49.1148 41.108 49.5963 40.7371 49.9369 40.2501C50.2776 39.7631 50.4609 39.1834 50.4622 38.5891V35.904C50.4649 35.4456 50.3578 34.9932 50.1498 34.5847C49.9418 34.1763 49.6391 33.8235 49.2668 33.5561ZM35.2083 28.536C35.8603 28.3041 36.4846 28.0753 37.0915 27.8553L39.5903 28.7121L37.6457 29.3713L35.2083 28.536Z" fill="white"/>
<path d="M37.9952 24.798C40.0539 25.5028 34.8449 27.2472 33.2585 27.8292L29.6108 26.5787C31.1977 25.9968 35.849 24.0641 37.9952 24.798Z" fill="#F7931A"/>
<path d="M31.7591 23.4334C33.6305 24.0753 29.2618 25.5223 27.941 26.0065L24.6316 24.8722C25.9524 24.388 29.8058 22.7639 31.7591 23.4334Z" fill="#F7931A"/>
</svg>
