<svg width="33" height="26" viewBox="0 0 33 26" fill="none" xmlns="http://www.w3.org/2000/svg">
<path d="M32.6 3.77831H31.3245C31.0448 3.83191 30.7872 3.96679 30.5838 4.16608C30.3805 4.36537 30.2404 4.6202 30.1812 4.8987V20.7504C30.2438 21.0187 30.3868 21.2616 30.5911 21.4465C30.7954 21.6313 31.0512 21.7495 31.3245 21.7851H32.6V25.5478H21.0434V21.7851H23.4623V5.12208H23.3438L17.6953 25.5478H13.3222L7.74658 5.12208H7.60547V21.7851H10.0243V25.5478H0.348999V21.7851H1.588C1.86765 21.7562 2.1314 21.6411 2.34277 21.4557C2.55413 21.2703 2.70267 21.0239 2.76782 20.7504V4.89857C2.70645 4.61492 2.56107 4.35633 2.35063 4.15649C2.14018 3.95665 1.87443 3.82482 1.58799 3.77819H0.348999V0.015625H12.4474L16.4196 14.7974H16.5292L20.5377 0.015625H32.6V3.77831Z" fill="white"/>
</svg>
