<svg width="24" height="28" viewBox="0 0 24 28" fill="none" xmlns="http://www.w3.org/2000/svg">
<path d="M9.28457 23.6373C9.95112 23.4963 14.0127 23.4963 14.6792 23.6373C15.2491 23.7689 15.8653 24.0764 15.8653 24.7479C15.8321 25.3871 15.4571 25.9538 14.939 26.3137C14.2671 26.8374 13.4787 27.1691 12.6544 27.2886C12.1986 27.3477 11.7507 27.349 11.3107 27.2886C10.4852 27.1691 9.69669 26.8374 9.02616 26.3123C8.5067 25.9538 8.13169 25.3871 8.09856 24.7479C8.09856 24.0764 8.71475 23.7689 9.28457 23.6373ZM12.0606 0.666748C14.8342 0.666748 17.6673 1.98277 19.3503 4.1663C20.4422 5.5723 20.9431 6.97695 20.9431 9.16048V9.72852C20.9431 11.4031 21.3857 12.3901 22.3597 13.5275C23.0978 14.3655 23.3337 15.4411 23.3337 16.6081C23.3337 17.7737 22.9507 18.8803 22.1834 19.7787C21.179 20.8556 19.7624 21.5432 18.3166 21.6627C16.2216 21.8413 14.1252 21.9917 12.001 21.9917C9.87545 21.9917 7.78039 21.9018 5.68533 21.6627C4.23827 21.5432 2.82168 20.8556 1.81855 19.7787C1.05129 18.8803 0.666992 17.7737 0.666992 16.6081C0.666992 15.4411 0.904194 14.3655 1.64098 13.5275C2.64544 12.3901 3.05889 11.4031 3.05889 9.72852V9.16048C3.05889 6.91787 3.6181 5.45144 4.76965 4.0159C6.48174 1.92234 9.22613 0.666748 11.9414 0.666748H12.0606Z" fill="white"/>
</svg>
