<svg width="23" height="30" viewBox="0 0 23 30" fill="none" xmlns="http://www.w3.org/2000/svg">
<path fill-rule="evenodd" clip-rule="evenodd" d="M14.1074 4.64803C17.6329 4.99607 20.3974 6.07358 20.7039 9.28327C20.9119 11.6232 19.9254 13.0154 18.2941 13.8001C20.9278 14.4574 22.5297 16.0029 22.1987 19.4314C21.7957 23.7285 18.5809 24.8446 13.9848 25.0801L13.992 29.5166L11.2851 29.52L11.2779 25.0836C10.9821 25.0793 10.6728 25.0837 10.3556 25.0882C9.93169 25.0943 9.49364 25.1006 9.05464 25.0865L9.06184 29.5229L6.35994 29.5264L6.35274 25.0899L0.939495 24.983L1.39569 21.7407C1.39569 21.7407 3.44017 21.7857 3.40226 21.7623C4.15492 21.7582 4.37831 21.2246 4.43395 20.8741L4.42048 13.7624L4.44174 8.70073C4.35862 8.17314 3.99959 7.5401 2.89303 7.52088C2.9533 7.46684 0.91115 7.52343 0.91115 7.52343L0.904297 4.55104L6.4515 4.54392L6.44445 0.198351L9.23906 0.194758L9.24612 4.54033C9.7856 4.52539 10.3178 4.52966 10.856 4.53398C11.0326 4.5354 11.2099 4.53682 11.3882 4.53757L11.3812 0.192005L14.1003 0.188507L14.1074 4.64803ZM8.91512 12.8241L9.05236 12.83H9.05236C10.6975 12.9017 15.5756 13.1144 15.5831 10.1569C15.5755 7.34898 11.424 7.43958 9.4951 7.48167C9.26727 7.48664 9.07045 7.49094 8.91512 7.4897L8.91512 12.8241ZM9.14438 21.5355C9.05797 21.532 8.97834 21.5287 8.90622 21.526L8.90622 16.1916C9.07809 16.1932 9.2942 16.1905 9.54411 16.1874C11.8237 16.159 16.9155 16.0956 16.8914 18.9263C16.9171 21.8543 11.1697 21.6186 9.14438 21.5355Z" fill="#141414"/>
</svg>
