<svg width="12" height="15" viewBox="0 0 12 15" fill="none" xmlns="http://www.w3.org/2000/svg">
<path d="M10.9919 13.2524C10.8577 12.9392 10.7347 12.615 10.5557 12.3129C10.2202 11.7314 9.80632 11.1945 9.40376 10.6577C8.62087 9.61758 7.77079 8.63338 6.86499 7.69385C7.55846 6.78798 8.20705 5.84846 8.78869 4.87538C9.13543 4.30498 9.48216 3.71222 9.76172 3.10828C9.90708 2.79508 9.99662 2.45958 10.0972 2.12411C10.1867 1.84453 10.2314 1.47541 10.1867 1.19585C10.1643 1.0504 9.99653 0.983337 9.88469 1.06164C9.86231 1.07278 9.83992 1.09517 9.81763 1.10641C9.79525 1.07288 9.76172 1.03935 9.7058 1.03935C9.61636 1.03935 9.52682 1.05049 9.43737 1.05049C9.41498 1.03935 9.3926 1.02811 9.37031 1.00572C9.21371 0.905036 9.06834 0.793207 8.9006 0.703756C8.68808 0.591927 8.45327 0.692611 8.38611 0.916271C7.72619 2.91817 6.83144 4.80844 5.74662 6.60906C5.04201 5.9716 4.30388 5.35645 3.54335 4.7972C2.9618 4.37216 2.38018 3.9696 1.7874 3.57812C1.22814 3.19785 0.669004 2.80644 0.0873611 2.45973C0.0425917 2.43734 -0.0244683 2.49326 0.0090617 2.53803C0.378185 3.04137 0.859018 3.46628 1.32883 3.89132C1.8657 4.36104 2.41369 4.80844 2.96171 5.26701C3.76699 5.93809 4.53867 6.65383 5.26565 7.40322C4.27023 8.96904 3.14067 10.4565 1.9441 11.877C1.77635 12.056 1.6086 12.2237 1.44076 12.4026C1.13879 12.7381 0.825585 13.0737 0.557174 13.4427C0.422959 13.5881 0.299981 13.7335 0.165763 13.8677C0.0874636 13.946 0.199293 14.0467 0.277592 13.9796C0.288737 13.9684 0.299977 13.9572 0.311122 13.946C0.322267 13.946 0.344652 13.946 0.355892 13.9349C0.903907 13.5435 1.41837 13.0849 1.93285 12.6488C2.48087 12.1902 3.02886 11.7316 3.55459 11.2508C4.52762 10.3784 5.42237 9.42778 6.24991 8.4211C7.04395 9.28229 7.7821 10.1882 8.46441 11.1501C8.83353 11.6757 9.16903 12.2238 9.52689 12.7606C9.71702 13.0514 9.95192 13.3086 10.1532 13.5882C10.3322 13.8454 10.6118 14.1362 10.8914 14.2928C11.0256 14.3598 11.1709 14.2816 11.1822 14.125C11.2046 13.8788 11.1151 13.5209 10.992 13.2525L10.9919 13.2524Z" fill="white"/>
</svg>
